<svg width="834" height="243" viewBox="0 0 834 243" fill="none" xmlns="http://www.w3.org/2000/svg">
<path d="M847 215.139C847 314.414 674.999 253.422 439.842 253.422C204.685 253.422 -25 330.59 -25 231.315C-25 132.04 169.717 0 404.874 0C640.03 0 847 115.864 847 215.139Z" fill="black" fill-opacity="0.1"/>
<path d="M846.5 215.139C846.5 227.476 843.829 237.279 838.733 245.011C833.637 252.743 826.088 258.448 816.258 262.541C796.57 270.737 767.821 272.428 731.624 271.009C704.845 269.959 674.045 267.21 639.895 264.163C627.903 263.093 615.498 261.986 602.709 260.903C553.51 256.735 498.652 252.922 439.842 252.922C359.71 252.922 280.186 261.882 210.201 269.768C177.476 273.455 146.837 276.907 119.198 279.098C75.7872 282.539 39.8066 282.869 14.6915 276.167C2.14141 272.819 -7.64943 267.726 -14.302 260.431C-20.9448 253.146 -24.5 243.62 -24.5 231.315C-24.5 206.657 -12.405 179.9 9.48306 153.61C31.3661 127.326 63.0049 101.549 102.004 78.8615C180.003 33.4861 287.384 0.5 404.874 0.5C522.375 0.5 632.829 29.4484 713.893 70.7869C754.426 91.4564 787.594 115.214 810.62 139.982C833.652 164.756 846.5 190.495 846.5 215.139Z" stroke="white" stroke-opacity="0.5"/>
</svg>
